<svg width="50" height="50" viewBox="0 0 50 50" fill="none" xmlns="http://www.w3.org/2000/svg">
<path d="M14.5833 27.0833L14.5833 29.1666L16.6667 29.1666L16.6667 31.25L20.8333 31.25L20.8333 35.4166L25 35.4167L25 39.5833L29.1667 39.5833L29.1667 43.75L33.3333 43.75L33.3333 45.8333L37.5 45.8333L37.5 39.5833L33.3333 39.5833L33.3333 35.4167L29.1667 35.4167L29.1667 31.25L25 31.25L25 27.0833L20.8333 27.0833L20.8333 22.9166L25 22.9167L25 18.75L29.1667 18.75L29.1667 14.5833L33.3333 14.5833L33.3333 10.4167L37.5 10.4167L37.5 4.16665L33.3333 4.16665L33.3333 6.24998L29.1667 6.24998L29.1667 10.4167L25 10.4167L25 12.5L25 14.5833L20.8333 14.5833L20.8333 16.6666L20.8333 18.75L16.6667 18.75L16.6667 20.8333L14.5833 20.8333L14.5833 22.9166L12.5 22.9166L12.5 25L12.5 27.0833L14.5833 27.0833Z" fill="white"/>
</svg>
